HIERARCHY
ROOT ui
{
	 OFFSET 0 0 0
	 CHANNELS 3 XPosition YPosition Z Position
	 EndSite
	 {
	 OFFSET 0 -1 0
	 }
}
ROOT li
{
	 OFFSET 0 0 0
	 CHANNELS 3 XPosition YPosition Z Position
	 EndSite
	 {
	 OFFSET 0 -1 0
	 }
}
ROOT ul
{
	 OFFSET 0 0 0
	 CHANNELS 3 XPosition YPosition Z Position
	 EndSite
	 {
	 OFFSET 0 -1 0
	 }
}
ROOT ll
{
	 OFFSET 0 0 0
	 CHANNELS 3 XPosition YPosition Z Position
	 EndSite
	 {
	 OFFSET 0 -1 0
	 }
}
ROOT tt
{
	 OFFSET 0 0 0
	 CHANNELS 3 XPosition YPosition Z Position
	 EndSite
	 {
	 OFFSET 0 -1 0
	 }
}
ROOT tb
{
	 OFFSET 0 0 0
	 CHANNELS 3 XPosition YPosition Z Position
	 EndSite
	 {
	 OFFSET 0 -1 0
	 }
}
ROOT td
{
	 OFFSET 0 0 0
	 CHANNELS 3 XPosition YPosition Z Position
	 EndSite
	 {
	 OFFSET 0 -1 0
	 }
}
ROOT v
{
	 OFFSET 0 0 0
	 CHANNELS 3 XPosition YPosition Z Position
	 EndSite
	 {
	 OFFSET 0 -1 0
	 }
}
ROOT bn
{
	 OFFSET 0 0 0
	 CHANNELS 3 XPosition YPosition Z Position
	 EndSite
	 {
	 OFFSET 0 -1 0
	 }
}
MOTION
Frames: 24
Frame Time: 0.002
-0.01062813663482666	1.1164000257849694E-5	0		0.5509851684570313	-2.4950751953125	0		-1.1337464599609375	-0.19410806274414064	0		-0.6635926513671875	-2.5432177734375	0		0.8715562744140625	-0.6483658447265624	0		2.54391357421875	0.32098147583007813	0		3.8527177734375	0.2011170349121094	0		5.29382470703125	-0.12839920043945313	0		-0.3854833984375	5.87130908203125	0		
-0.0065933351516723636	-1.0407599806785583E-4	0		0.5788549194335938	-2.50047021484375	0		-1.12972021484375	-0.19417352294921875	0		-0.6218746948242188	-2.56270703125	0		0.90244384765625	-0.6598065795898438	0		2.566004150390625	0.3245614318847656	0		3.87596240234375	0.21962750244140625	0		5.302359375	-0.137786865234375	0		-0.3811884155273437	5.87121044921875	0		
-0.005737707138061523	-0.0041860628128051755	0		0.5546571655273438	-2.500308349609375	0		-1.1987720947265625	-0.18846524047851562	0		-0.6570955810546875	-2.564380859375	0		0.9122518920898437	-0.6660199584960937	0		2.58793505859375	0.3261546936035156	0		3.90386767578125	0.2191057891845703	0		5.31429541015625	-0.1627881317138672	0		-0.37706134033203126	5.87111083984375	0		
0.0010455950498580932	-3.311559855937958E-4	0		0.5863128051757812	-2.500739501953125	0		-1.1140208740234374	-0.18740534973144532	0		-0.6106034545898438	-2.579931396484375	0		0.9247986450195312	-0.6822587890625	0		2.594793701171875	0.33592263793945315	0		3.911679931640625	0.22481930541992187	0		5.33192529296875	-0.1653984375	0		-0.407186767578125	5.865375	0		
0.004609312057495117	-4.418349862098694E-4	0		0.5747656860351562	-2.504705078125	0		-1.192253662109375	-0.16760638427734376	0		-0.634195068359375	-2.587735107421875	0		0.9612987670898437	-0.6867488403320312	0		2.592463623046875	0.3448044738769531	0		3.938377197265625	0.23635348510742188	0		5.3465537109375	-0.17307029724121092	0		-0.3693992004394531	5.87091015625	0		
0.007976192951202393	-5.492129921913147E-4	0		0.628990234375	-2.51337255859375	0		-1.103841552734375	-0.16360261535644532	0		-0.6009818115234375	-2.59715087890625	0		1.0224971313476563	-0.7014994506835938	0		2.58587060546875	0.34774932861328123	0		3.940888916015625	0.2491723175048828	0		5.35681005859375	-0.17019131469726562	0		-0.33284463500976563	5.87645556640625	0		
-0.06585816955566406	0.0011770880222320556	0		0.5962346801757813	-2.50109765625	0		-1.173635498046875	-0.15790313720703125	0		-0.60595556640625	-2.605157958984375	0		1.0224542236328125	-0.7185840454101563	0		2.615164794921875	0.3603275451660156	0		3.968041748046875	0.24875274658203125	0		5.36895361328125	-0.18979171752929688	0		-0.32960708618164064	5.87635791015625	0		
0.014043737411499023	-7.489740252494812E-4	0		0.6309566040039063	-2.51754345703125	0		-1.0897027587890624	-0.15686320495605469	0		-0.6101567993164062	-2.614173828125	0		1.048353271484375	-0.719937255859375	0		2.594183349609375	0.3694669189453125	0		3.987013916015625	0.253449951171875	0		5.37048828125	-0.15195816040039062	0		-0.3407477111816406	5.8664150390625	0		
-0.06026824188232422	9.91087019443512E-4	0		0.583712890625	-2.50909619140625	0		-1.151897216796875	-0.14425067138671874	0		-0.5876958618164062	-2.633476806640625	0		1.079947265625	-0.7273416137695312	0		2.619920166015625	0.375123046875	0		4.00561083984375	0.24617916870117187	0		5.3886826171875	-0.17851103210449218	0		-0.39108035278320313	5.8648974609375	0		
0.01913995361328125	-9.204400181770325E-4	0		0.6400986938476563	-2.513757568359375	0		-1.1325496826171875	-0.15151905822753906	0		-0.5723287963867187	-2.6397001953125	0		1.0884483642578124	-0.720484619140625	0		2.641438232421875	0.3838450927734375	0		4.029075439453125	0.2498847198486328	0		5.40467626953125	-0.1789941101074219	0		-0.3536251525878906	5.86943701171875	0		
-0.05263806533813477	0.0038038411140441895	0		0.5903626708984375	-2.507264892578125	0		-1.1351796875	-0.13354844665527343	0		-0.5761956176757812	-2.645712646484375	0		1.129530029296875	-0.729967041015625	0		2.653479736328125	0.37168853759765624	0		4.054192626953125	0.24459974670410156	0		5.4175791015625	-0.1931781768798828	0		-0.3675971984863281	5.86053466796875	0		
0.02324556541442871	-0.0010546629428863526	0		0.6402169799804688	-2.517834716796875	0		-1.1332469482421874	-0.13362596130371093	0		-0.5782719116210937	-2.6497392578125	0		1.141298095703125	-0.7461207275390624	0		2.619138916015625	0.3470504455566406	0		4.0537763671875	0.21261526489257812	0		5.43593115234375	-0.22647808837890626	0		-0.3175755920410156	5.8759501953125	0		
-0.052042671203613285	7.208399772644043E-4	0		0.58597216796875	-2.51627392578125	0		-1.1655030517578124	-0.12933277893066406	0		-0.546637451171875	-2.66012255859375	0		1.1398255615234374	-0.7631188354492188	0		2.659548095703125	0.3206282043457031	0		4.05628662109375	0.19562591552734376	0		5.4527685546875	-0.24238232421875	0		-0.35102420043945315	5.87226904296875	0		
0.023374603271484374	-0.005113070011138916	0		0.6233706665039063	-2.5286865234375	0		-1.1471011962890625	-0.13657974243164062	0		-0.6031019287109375	-2.65955322265625	0		1.135242431640625	-0.7700698852539063	0		2.665833740234375	0.30359246826171876	0		4.054553955078125	0.17670596313476564	0		5.4723544921875	-0.2461961669921875	0		-0.38273748779296873	5.8665751953125	0		
-0.023310009002685546	-6.277480125427246E-4	0		0.602778564453125	-2.521464599609375	0		-1.133711181640625	-0.1257649459838867	0		-0.5617584838867188	-2.659023681640625	0		1.13739208984375	-0.7830801391601563	0		2.658861328125	0.281716552734375	0		4.071690185546875	0.1646070098876953	0		5.48685693359375	-0.23771965026855468	0		-0.34854946899414063	5.8721845703125	0		
0.028769336700439452	-0.0011869230270385742	0		0.641916259765625	-2.5228681640625	0		-1.13262548828125	-0.12581039428710938	0		-0.5965701904296875	-2.655669921875	0		1.11737939453125	-0.7938395385742187	0		2.657605712890625	0.25079689025878904	0		4.057534423828125	0.14286372375488282	0		5.5089033203125	-0.26745535278320315	0		-0.34861557006835936	5.8731708984375	0		
-0.047302650451660155	6.330260038375855E-4	0		0.6507852172851563	-2.533933349609375	0		-1.1146885986328126	-0.12402385711669922	0		-0.5636561889648437	-2.66302685546875	0		1.1350911865234374	-0.8149862060546875	0		2.70018994140625	0.22042967224121093	0		4.10223876953125	0.12351535797119141	0		5.54307666015625	-0.2697774963378906	0		-0.3138115844726562	5.87879931640625	0		
0.03044532585144043	-0.0011673500537872313	0		0.649604248046875	-2.535874755859375	0		-1.137888671875	-0.12078606414794922	0		-0.5997994384765625	-2.66163427734375	0		1.1186678466796875	-0.8347528076171875	0		2.64365234375	0.1931353759765625	0		4.10079638671875	0.10468009185791016	0		5.55784130859375	-0.28193634033203124	0		-0.347268310546875	5.87516796875	0		
-0.04590590286254883	6.841470003128052E-4	0		0.6322333374023438	-2.54362744140625	0		-1.1303043212890624	-0.12585857391357422	0		-0.5532123413085938	-2.67410205078125	0		1.1330626220703126	-0.859828125	0		2.6599833984375	0.16508644104003906	0		4.10721533203125	0.08478169250488281	0		5.57837060546875	-0.25960272216796876	0		-0.38088900756835936	5.8685537109375	0		
0.03463848495483399	0.0018970329761505127	0		0.6198190307617187	-2.5454130859375	0		-1.164728515625	-0.1214669418334961	0		-0.5695696411132812	-2.67088232421875	0		1.1434476318359375	-0.8758400268554688	0		2.698240478515625	0.13982688903808593	0		4.113529296875	0.06490374755859375	0		5.6095146484375	-0.23923541259765624	0		-0.3445123291015625	5.8712197265625	0		
0.03508351516723633	0.0019788360595703125	0		0.6613480224609375	-2.544744873046875	0		-1.09133642578125	-0.12718785858154297	0		-0.5110483703613281	-2.67142822265625	0		1.182685302734375	-0.8981339721679688	0		2.703533935546875	0.12593608093261718	0		4.132908203125	0.058907405853271484	0		5.608826171875	-0.1436296844482422	0		-0.32726373291015626	5.86911181640625	0		
0.03243442916870117	-8.831470012664795E-4	0		0.6307608642578125	-2.5482958984375	0		-1.14183251953125	-0.1155787353515625	0		-0.5455584106445313	-2.66797021484375	0		1.1719569091796875	-0.910879638671875	0		2.68855712890625	0.09227586364746093	0		4.13415283203125	0.04611807250976562	0		5.62559912109375	-0.12283895111083984	0		-0.37519940185546874	5.85471240234375	0		
0.03276641845703125	-7.509139776229858E-4	0		0.6551030883789063	-2.5533994140625	0		-1.1156141357421876	-0.12674725341796875	0		-0.5471803588867188	-2.669831298828125	0		1.1740396728515625	-0.9367383422851563	0		2.69470849609375	0.07541282653808594	0		4.15934619140625	0.03309232711791992	0		5.6268017578125	-0.06530166625976562	0		-0.37501412963867187	5.854833984375	0		
-0.017944120407104493	-5.9174999594688414E-5	0		0.6034996337890625	-2.54768408203125	0		-1.1801959228515626	-0.11393472290039063	0		-0.5678456420898438	-2.670465087890625	0		1.2000841064453125	-0.9618243408203125	0		2.6957744140625	0.05462017440795899	0		4.16847509765625	0.018247322082519533	0		5.6476865234375	-0.06707374572753906	0		-0.3948000183105469	5.860193359375	0		
